<svg width="115" height="121" viewBox="0 0 115 121" fill="none" xmlns="http://www.w3.org/2000/svg">
<g clip-path="url(#clip0_10_2)">
<path d="M63.5511 10.0909V14.2969H64.2415V16.5852H63.4872V15H59.6903V10.0909H60.4446V14.2969H62.7969V10.0909H63.5511ZM66.1575 13.8878L68.5225 10.0909H69.3919V15H68.6376V11.2031L66.2853 15H65.4032V10.0909H66.1575V13.8878ZM72.7677 16.6747V8.45455H73.5219V16.6747H72.7677ZM72.7677 15.1023C72.4353 15.1023 72.1327 15.0426 71.86 14.9233C71.5873 14.8018 71.3529 14.6303 71.1569 14.4087C70.9608 14.185 70.8096 13.9176 70.703 13.6065C70.5965 13.2955 70.5432 12.9503 70.5432 12.571C70.5432 12.1875 70.5965 11.8402 70.703 11.5291C70.8096 11.2159 70.9608 10.9474 71.1569 10.7237C71.3529 10.5 71.5873 10.3285 71.86 10.2092C72.1327 10.0877 72.4353 10.027 72.7677 10.027H72.9978V15.1023H72.7677ZM72.7677 14.4247H72.8955V10.7045H72.7677C72.5162 10.7045 72.2979 10.7557 72.1125 10.858C71.9271 10.9581 71.7737 11.0955 71.6523 11.2702C71.5329 11.4428 71.4434 11.641 71.3838 11.8647C71.3263 12.0884 71.2975 12.3239 71.2975 12.571C71.2975 12.8991 71.3497 13.2038 71.4541 13.4851C71.5585 13.7663 71.7194 13.9933 71.9367 14.1658C72.154 14.3384 72.431 14.4247 72.7677 14.4247ZM73.5219 15.1023H73.2918V10.027H73.5219C73.8543 10.027 74.1569 10.0877 74.4296 10.2092C74.7023 10.3285 74.9367 10.5 75.1327 10.7237C75.3287 10.9474 75.48 11.2159 75.5866 11.5291C75.6931 11.8402 75.7464 12.1875 75.7464 12.571C75.7464 12.9503 75.6931 13.2955 75.5866 13.6065C75.48 13.9176 75.3287 14.185 75.1327 14.4087C74.9367 14.6303 74.7023 14.8018 74.4296 14.9233C74.1569 15.0426 73.8543 15.1023 73.5219 15.1023ZM73.5219 14.4247C73.7755 14.4247 73.9939 14.3757 74.1771 14.2777C74.3625 14.1776 74.5148 14.0412 74.6341 13.8686C74.7556 13.6939 74.8451 13.4957 74.9026 13.2741C74.9623 13.0504 74.9921 12.8161 74.9921 12.571C74.9921 12.2429 74.9399 11.9371 74.8355 11.6538C74.7311 11.3704 74.5702 11.1413 74.3529 10.9666C74.1356 10.7919 73.8586 10.7045 73.5219 10.7045H73.3941V14.4247H73.5219ZM76.8993 16.8409V10.0909H77.628V10.8707H77.7175C77.7729 10.7855 77.8496 10.6768 77.9476 10.5447C78.0478 10.4105 78.1905 10.2912 78.3759 10.1868C78.5634 10.0803 78.8169 10.027 79.1365 10.027C79.5499 10.027 79.9142 10.1303 80.2296 10.337C80.5449 10.5437 80.791 10.8366 80.9679 11.2159C81.1447 11.5952 81.2331 12.0426 81.2331 12.5582C81.2331 13.0781 81.1447 13.5288 80.9679 13.9102C80.791 14.2894 80.546 14.5835 80.2328 14.7923C79.9196 14.9989 79.5584 15.1023 79.1493 15.1023C78.834 15.1023 78.5815 15.0501 78.3919 14.9457C78.2022 14.8391 78.0563 14.7187 77.954 14.5845C77.8517 14.4482 77.7729 14.3352 77.7175 14.2457H77.6536V16.8409H76.8993ZM77.6408 12.5455C77.6408 12.9162 77.6951 13.2433 77.8038 13.5266C77.9125 13.8079 78.0712 14.0284 78.28 14.1882C78.4888 14.3459 78.7445 14.4247 79.0471 14.4247C79.3624 14.4247 79.6255 14.3416 79.8365 14.1754C80.0495 14.0071 80.2093 13.7812 80.3159 13.4979C80.4245 13.2124 80.4789 12.8949 80.4789 12.5455C80.4789 12.2003 80.4256 11.8892 80.3191 11.6122C80.2147 11.3331 80.0559 11.1126 79.8429 10.9506C79.6319 10.7866 79.3667 10.7045 79.0471 10.7045C78.7402 10.7045 78.4824 10.7823 78.2736 10.9379C78.0648 11.0913 77.9071 11.3065 77.8006 11.5835C77.6941 11.8583 77.6408 12.179 77.6408 12.5455ZM84.378 15.1023C83.9348 15.1023 83.546 14.9968 83.2115 14.7859C82.8791 14.5749 82.6191 14.2798 82.4316 13.9006C82.2463 13.5213 82.1536 13.0781 82.1536 12.571C82.1536 12.0597 82.2463 11.6133 82.4316 11.2319C82.6191 10.8505 82.8791 10.5543 83.2115 10.3434C83.546 10.1325 83.9348 10.027 84.378 10.027C84.8212 10.027 85.209 10.1325 85.5414 10.3434C85.8759 10.5543 86.1358 10.8505 86.3212 11.2319C86.5087 11.6133 86.6025 12.0597 86.6025 12.571C86.6025 13.0781 86.5087 13.5213 86.3212 13.9006C86.1358 14.2798 85.8759 14.5749 85.5414 14.7859C85.209 14.9968 84.8212 15.1023 84.378 15.1023ZM84.378 14.4247C84.7147 14.4247 84.9917 14.3384 85.209 14.1658C85.4263 13.9933 85.5872 13.7663 85.6916 13.4851C85.796 13.2038 85.8482 12.8991 85.8482 12.571C85.8482 12.2429 85.796 11.9371 85.6916 11.6538C85.5872 11.3704 85.4263 11.1413 85.209 10.9666C84.9917 10.7919 84.7147 10.7045 84.378 10.7045C84.0414 10.7045 83.7644 10.7919 83.5471 10.9666C83.3297 11.1413 83.1689 11.3704 83.0645 11.6538C82.96 11.9371 82.9078 12.2429 82.9078 12.571C82.9078 12.8991 82.96 13.2038 83.0645 13.4851C83.1689 13.7663 83.3297 13.9933 83.5471 14.1658C83.7644 14.3384 84.0414 14.4247 84.378 14.4247ZM87.7538 15V10.0909H89.7609C90.2893 10.0909 90.7091 10.2102 91.0202 10.4489C91.3312 10.6875 91.4868 11.0028 91.4868 11.3949C91.4868 11.6932 91.3983 11.9244 91.2215 12.0884C91.0447 12.2504 90.8177 12.3601 90.5407 12.4176C90.7219 12.4432 90.8976 12.5071 91.0681 12.6094C91.2407 12.7116 91.3834 12.8523 91.4964 13.0312C91.6093 13.2081 91.6657 13.4254 91.6657 13.6832C91.6657 13.9347 91.6018 14.1594 91.474 14.3576C91.3461 14.5558 91.1629 14.7124 90.9243 14.8274C90.6856 14.9425 90.4001 15 90.0677 15H87.7538ZM88.4697 14.3097H90.0677C90.3277 14.3097 90.5312 14.2479 90.6782 14.1243C90.8252 14.0007 90.8987 13.8324 90.8987 13.6193C90.8987 13.3658 90.8252 13.1665 90.6782 13.0217C90.5312 12.8746 90.3277 12.8011 90.0677 12.8011H88.4697V14.3097ZM88.4697 12.1491H89.7609C89.9633 12.1491 90.137 12.1214 90.2819 12.0661C90.4268 12.0085 90.5376 11.9276 90.6143 11.8232C90.6931 11.7166 90.7325 11.5909 90.7325 11.446C90.7325 11.2393 90.6462 11.0774 90.4736 10.9602C90.301 10.8409 90.0635 10.7812 89.7609 10.7812H88.4697V12.1491ZM93.4595 11.8679H94.8658C95.4411 11.8679 95.881 12.0138 96.1857 12.3058C96.4904 12.5977 96.6428 12.9673 96.6428 13.4148C96.6428 13.7088 96.5746 13.9762 96.4382 14.217C96.3018 14.4556 96.1016 14.6463 95.8374 14.7891C95.5732 14.9297 95.2493 15 94.8658 15H92.8075V10.0909H93.5618V14.2969H94.8658C95.1641 14.2969 95.4091 14.218 95.6009 14.0604C95.7926 13.9027 95.8885 13.7003 95.8885 13.4531C95.8885 13.1932 95.7926 12.9812 95.6009 12.8171C95.4091 12.6531 95.1641 12.571 94.8658 12.571H93.4595V11.8679ZM97.4226 15V10.0909H98.1768V15H97.4226ZM101.616 15.1023C101.143 15.1023 100.735 14.9979 100.392 14.7891C100.051 14.5781 99.7876 14.2841 99.6023 13.907C99.419 13.5277 99.3274 13.0866 99.3274 12.5838C99.3274 12.081 99.419 11.6378 99.6023 11.2543C99.7876 10.8686 100.045 10.5682 100.376 10.353C100.708 10.1357 101.096 10.027 101.539 10.027C101.795 10.027 102.047 10.0696 102.297 10.1548C102.546 10.2401 102.773 10.3786 102.977 10.5703C103.182 10.7599 103.345 11.0114 103.466 11.3246C103.588 11.6378 103.648 12.0234 103.648 12.4815V12.8011H99.8643V12.1491H102.881C102.881 11.8722 102.826 11.625 102.715 11.4077C102.607 11.1903 102.451 11.0188 102.249 10.8931C102.048 10.7674 101.812 10.7045 101.539 10.7045C101.239 10.7045 100.979 10.7791 100.759 10.9283C100.542 11.0753 100.375 11.267 100.257 11.5036C100.14 11.7401 100.082 11.9936 100.082 12.2642V12.6989C100.082 13.0696 100.146 13.3839 100.273 13.6417C100.403 13.8974 100.583 14.0923 100.814 14.2266C101.044 14.3587 101.311 14.4247 101.616 14.4247C101.814 14.4247 101.993 14.397 102.153 14.3416C102.315 14.2841 102.454 14.1989 102.571 14.0859C102.689 13.9709 102.779 13.8281 102.843 13.6577L103.572 13.8622C103.495 14.1094 103.366 14.3267 103.185 14.5142C103.004 14.6996 102.78 14.8445 102.514 14.9489C102.248 15.0511 101.948 15.1023 101.616 15.1023Z" fill="black"/>
<path d="M20.6903 25.8V20.8909H24.5511V25.8H23.7969V21.594H21.4446V25.8H20.6903ZM25.9286 27.6409V20.8909H26.6573V21.6707H26.7468C26.8022 21.5855 26.8789 21.4768 26.9769 21.3447C27.0771 21.2105 27.2198 21.0912 27.4052 20.9868C27.5927 20.8803 27.8462 20.827 28.1658 20.827C28.5792 20.827 28.9435 20.9303 29.2589 21.137C29.5742 21.3437 29.8203 21.6367 29.9972 22.0159C30.174 22.3952 30.2624 22.8426 30.2624 23.3582C30.2624 23.8781 30.174 24.3288 29.9972 24.7102C29.8203 25.0894 29.5753 25.3835 29.2621 25.5923C28.9489 25.7989 28.5877 25.9023 28.1786 25.9023C27.8633 25.9023 27.6108 25.8501 27.4212 25.7457C27.2315 25.6391 27.0856 25.5188 26.9833 25.3845C26.881 25.2482 26.8022 25.1352 26.7468 25.0457H26.6829V27.6409H25.9286ZM26.6701 23.3455C26.6701 23.7162 26.7244 24.0433 26.8331 24.3266C26.9418 24.6079 27.1005 24.8284 27.3093 24.9882C27.5181 25.1459 27.7738 25.2247 28.0763 25.2247C28.3917 25.2247 28.6548 25.1416 28.8658 24.9754C29.0788 24.8071 29.2386 24.5813 29.3452 24.2979C29.4538 24.0124 29.5082 23.6949 29.5082 23.3455C29.5082 23.0003 29.4549 22.6892 29.3484 22.4122C29.244 22.1331 29.0852 21.9126 28.8722 21.7506C28.6612 21.5866 28.396 21.5045 28.0763 21.5045C27.7695 21.5045 27.5117 21.5823 27.3029 21.7379C27.0941 21.8913 26.9364 22.1065 26.8299 22.3835C26.7234 22.6583 26.6701 22.979 26.6701 23.3455ZM33.4073 25.9023C32.9641 25.9023 32.5753 25.7968 32.2408 25.5859C31.9084 25.3749 31.6484 25.0798 31.4609 24.7006C31.2756 24.3213 31.1829 23.8781 31.1829 23.371C31.1829 22.8597 31.2756 22.4133 31.4609 22.0319C31.6484 21.6505 31.9084 21.3543 32.2408 21.1434C32.5753 20.9325 32.9641 20.827 33.4073 20.827C33.8505 20.827 34.2383 20.9325 34.5707 21.1434C34.9052 21.3543 35.1651 21.6505 35.3505 22.0319C35.538 22.4133 35.6317 22.8597 35.6317 23.371C35.6317 23.8781 35.538 24.3213 35.3505 24.7006C35.1651 25.0798 34.9052 25.3749 34.5707 25.5859C34.2383 25.7968 33.8505 25.9023 33.4073 25.9023ZM33.4073 25.2247C33.744 25.2247 34.021 25.1384 34.2383 24.9658C34.4556 24.7933 34.6165 24.5663 34.7209 24.2851C34.8253 24.0038 34.8775 23.6992 34.8775 23.371C34.8775 23.0429 34.8253 22.7371 34.7209 22.4538C34.6165 22.1704 34.4556 21.9413 34.2383 21.7666C34.021 21.5919 33.744 21.5045 33.4073 21.5045C33.0707 21.5045 32.7937 21.5919 32.5763 21.7666C32.359 21.9413 32.1982 22.1704 32.0938 22.4538C31.9893 22.7371 31.9371 23.0429 31.9371 23.371C31.9371 23.6992 31.9893 24.0038 32.0938 24.2851C32.1982 24.5663 32.359 24.7933 32.5763 24.9658C32.7937 25.1384 33.0707 25.2247 33.4073 25.2247ZM37.5374 24.6878L39.9024 20.8909H40.7718V25.8H40.0175V22.0031L37.6652 25.8H36.7831V20.8909H37.5374V24.6878ZM41.8464 24.5472H42.6518C42.6689 24.7688 42.769 24.9371 42.9522 25.0521C43.1376 25.1672 43.3784 25.2247 43.6745 25.2247C43.9771 25.2247 44.236 25.1629 44.4512 25.0393C44.6664 24.9136 44.774 24.7112 44.774 24.4321C44.774 24.268 44.7335 24.1253 44.6525 24.0038C44.5716 23.8803 44.4576 23.7844 44.3105 23.7162C44.1635 23.648 43.9899 23.6139 43.7896 23.6139H42.9458V22.9364H43.7896C44.09 22.9364 44.3116 22.8682 44.4544 22.7318C44.5993 22.5955 44.6717 22.425 44.6717 22.2205C44.6717 22.001 44.5939 21.8252 44.4384 21.6931C44.2828 21.5589 44.0623 21.4918 43.7768 21.4918C43.4892 21.4918 43.2495 21.5568 43.0577 21.6867C42.8659 21.8146 42.7647 21.9797 42.7541 22.1821H41.9615C41.97 21.9179 42.051 21.6846 42.2044 21.4822C42.3578 21.2776 42.5666 21.1178 42.8308 21.0028C43.095 20.8856 43.3975 20.827 43.7385 20.827C44.0836 20.827 44.383 20.8877 44.6365 21.0092C44.8922 21.1285 45.0893 21.2915 45.2278 21.4982C45.3684 21.7027 45.4387 21.9349 45.4387 22.1949C45.4387 22.4719 45.361 22.6956 45.2054 22.8661C45.0499 23.0365 44.8549 23.158 44.6206 23.2304V23.2815C44.8059 23.2943 44.9668 23.354 45.1032 23.4605C45.2417 23.5649 45.3493 23.7023 45.426 23.8728C45.5027 24.0411 45.541 24.2276 45.541 24.4321C45.541 24.7304 45.4611 24.9903 45.3013 25.2119C45.1415 25.4314 44.9221 25.6018 44.6429 25.7233C44.3638 25.8426 44.0453 25.9023 43.6873 25.9023C43.34 25.9023 43.0289 25.8458 42.7541 25.7329C42.4792 25.6178 42.2608 25.4591 42.0989 25.2567C41.9391 25.0521 41.8549 24.8156 41.8464 24.5472ZM46.6005 25.8V20.8909H48.6076C49.136 20.8909 49.5558 21.0102 49.8668 21.2489C50.1779 21.4875 50.3335 21.8028 50.3335 22.1949C50.3335 22.4932 50.245 22.7244 50.0682 22.8884C49.8913 23.0504 49.6644 23.1601 49.3874 23.2176C49.5685 23.2432 49.7443 23.3071 49.9148 23.4094C50.0874 23.5117 50.2301 23.6523 50.343 23.8313C50.456 24.0081 50.5124 24.2254 50.5124 24.4832C50.5124 24.7347 50.4485 24.9594 50.3207 25.1576C50.1928 25.3558 50.0096 25.5124 49.771 25.6274C49.5323 25.7425 49.2468 25.8 48.9144 25.8H46.6005ZM47.3164 25.1097H48.9144C49.1744 25.1097 49.3778 25.0479 49.5249 24.9243C49.6719 24.8007 49.7454 24.6324 49.7454 24.4193C49.7454 24.1658 49.6719 23.9666 49.5249 23.8217C49.3778 23.6746 49.1744 23.6011 48.9144 23.6011H47.3164V25.1097ZM47.3164 22.9492H48.6076C48.81 22.9492 48.9837 22.9215 49.1286 22.8661C49.2734 22.8085 49.3842 22.7276 49.4609 22.6232C49.5398 22.5166 49.5792 22.3909 49.5792 22.246C49.5792 22.0393 49.4929 21.8774 49.3203 21.7602C49.1477 21.6409 48.9102 21.5813 48.6076 21.5813H47.3164V22.9492ZM53.6485 25.9023C53.2053 25.9023 52.8165 25.7968 52.482 25.5859C52.1496 25.3749 51.8896 25.0798 51.7021 24.7006C51.5168 24.3213 51.4241 23.8781 51.4241 23.371C51.4241 22.8597 51.5168 22.4133 51.7021 22.0319C51.8896 21.6505 52.1496 21.3543 52.482 21.1434C52.8165 20.9325 53.2053 20.827 53.6485 20.827C54.0917 20.827 54.4795 20.9325 54.8119 21.1434C55.1464 21.3543 55.4063 21.6505 55.5917 22.0319C55.7792 22.4133 55.873 22.8597 55.873 23.371C55.873 23.8781 55.7792 24.3213 55.5917 24.7006C55.4063 25.0798 55.1464 25.3749 54.8119 25.5859C54.4795 25.7968 54.0917 25.9023 53.6485 25.9023ZM53.6485 25.2247C53.9852 25.2247 54.2622 25.1384 54.4795 24.9658C54.6968 24.7933 54.8577 24.5663 54.9621 24.2851C55.0665 24.0038 55.1187 23.6992 55.1187 23.371C55.1187 23.0429 55.0665 22.7371 54.9621 22.4538C54.8577 22.1704 54.6968 21.9413 54.4795 21.7666C54.2622 21.5919 53.9852 21.5045 53.6485 21.5045C53.3119 21.5045 53.0349 21.5919 52.8176 21.7666C52.6002 21.9413 52.4394 22.1704 52.335 22.4538C52.2306 22.7371 52.1784 23.0429 52.1784 23.371C52.1784 23.6992 52.2306 24.0038 52.335 24.2851C52.4394 24.5663 52.6002 24.7933 52.8176 24.9658C53.0349 25.1384 53.3119 25.2247 53.6485 25.2247ZM56.5002 27.2063V25.0969H56.9093C57.0094 24.9925 57.0957 24.8795 57.1681 24.7581C57.2406 24.6367 57.3034 24.4928 57.3567 24.3266C57.4121 24.1583 57.459 23.9538 57.4973 23.713C57.5357 23.4701 57.5698 23.1771 57.5996 22.8341L57.7658 20.8909H60.8851V25.0969H61.6394V27.2063H60.8851V25.8H57.2544V27.2063H56.5002ZM57.7658 25.0969H60.1309V21.594H58.4689L58.3411 22.8341C58.2878 23.3476 58.2218 23.7961 58.1429 24.1796C58.0641 24.5631 57.9384 24.8689 57.7658 25.0969ZM64.6349 25.9023C64.1746 25.9023 63.7783 25.7936 63.4459 25.5763C63.1135 25.359 62.8579 25.0596 62.6789 24.6782C62.4999 24.2968 62.4104 23.8611 62.4104 23.371C62.4104 22.8724 62.502 22.4325 62.6853 22.0511C62.8706 21.6675 63.1285 21.3682 63.4587 21.153C63.7911 20.9357 64.1789 20.827 64.6221 20.827C64.9672 20.827 65.2783 20.8909 65.5553 21.0188C65.8323 21.1466 66.0592 21.3256 66.2361 21.5557C66.4129 21.7858 66.5226 22.0543 66.5653 22.3611H65.811C65.7535 22.1374 65.6256 21.9392 65.4275 21.7666C65.2314 21.5919 64.9672 21.5045 64.6349 21.5045C64.3408 21.5045 64.083 21.5813 63.8614 21.7347C63.642 21.8859 63.4704 22.1001 63.3469 22.3771C63.2254 22.6519 63.1647 22.9747 63.1647 23.3455C63.1647 23.7247 63.2243 24.055 63.3437 24.3362C63.4651 24.6175 63.6356 24.8359 63.855 24.9914C64.0766 25.1469 64.3366 25.2247 64.6349 25.2247C64.8309 25.2247 65.0088 25.1906 65.1686 25.1224C65.3284 25.0543 65.4637 24.9563 65.5745 24.8284C65.6853 24.7006 65.7641 24.5472 65.811 24.3682H66.5653C66.5226 24.658 66.4172 24.919 66.2488 25.1512C66.0827 25.3813 65.8621 25.5646 65.5873 25.7009C65.3145 25.8352 64.9971 25.9023 64.6349 25.9023ZM67.2812 21.594V20.8909H71.2698V21.594H69.659V25.8H68.9047V21.594H67.2812ZM72.37 25.8V20.8909H74.3771C74.9055 20.8909 75.3253 21.0102 75.6364 21.2489C75.9474 21.4875 76.103 21.8028 76.103 22.1949C76.103 22.4932 76.0146 22.7244 75.8377 22.8884C75.6609 23.0504 75.4339 23.1601 75.157 23.2176C75.3381 23.2432 75.5138 23.3071 75.6843 23.4094C75.8569 23.5117 75.9996 23.6523 76.1126 23.8313C76.2255 24.0081 76.282 24.2254 76.282 24.4832C76.282 24.7347 76.218 24.9594 76.0902 25.1576C75.9624 25.3558 75.7791 25.5124 75.5405 25.6274C75.3018 25.7425 75.0163 25.8 74.6839 25.8H72.37ZM73.0859 25.1097H74.6839C74.9439 25.1097 75.1474 25.0479 75.2944 24.9243C75.4414 24.8007 75.5149 24.6324 75.5149 24.4193C75.5149 24.1658 75.4414 23.9666 75.2944 23.8217C75.1474 23.6746 74.9439 23.6011 74.6839 23.6011H73.0859V25.1097ZM73.0859 22.9492H74.3771C74.5795 22.9492 74.7532 22.9215 74.8981 22.8661C75.043 22.8085 75.1538 22.7276 75.2305 22.6232C75.3093 22.5166 75.3487 22.3909 75.3487 22.246C75.3487 22.0393 75.2624 21.8774 75.0898 21.7602C74.9173 21.6409 74.6797 21.5813 74.3771 21.5813H73.0859V22.9492ZM79.482 25.9023C79.009 25.9023 78.6009 25.7979 78.2579 25.5891C77.917 25.3781 77.6539 25.0841 77.4685 24.707C77.2852 24.3277 77.1936 23.8867 77.1936 23.3838C77.1936 22.881 77.2852 22.4378 77.4685 22.0543C77.6539 21.6686 77.9117 21.3682 78.2419 21.153C78.5743 20.9357 78.9621 20.827 79.4053 20.827C79.661 20.827 79.9134 20.8696 80.1627 20.9548C80.412 21.0401 80.6389 21.1786 80.8435 21.3703C81.048 21.5599 81.211 21.8114 81.3325 22.1246C81.4539 22.4378 81.5146 22.8234 81.5146 23.2815V23.6011H77.7306V22.9492H80.7476C80.7476 22.6722 80.6922 22.425 80.5814 22.2077C80.4727 21.9903 80.3172 21.8188 80.1148 21.6931C79.9145 21.5674 79.678 21.5045 79.4053 21.5045C79.1048 21.5045 78.8449 21.5791 78.6254 21.7283C78.4081 21.8753 78.2409 22.067 78.1237 22.3036C78.0065 22.5401 77.9479 22.7936 77.9479 23.0642V23.4989C77.9479 23.8696 78.0118 24.1839 78.1396 24.4417C78.2696 24.6974 78.4497 24.8923 78.6798 25.0266C78.9099 25.1587 79.1773 25.2247 79.482 25.2247C79.6801 25.2247 79.8591 25.197 80.0189 25.1416C80.1808 25.0841 80.3204 24.9989 80.4376 24.8859C80.5548 24.7709 80.6453 24.6281 80.7093 24.4577L81.4379 24.6622C81.3612 24.9094 81.2323 25.1267 81.0512 25.3142C80.8701 25.4996 80.6464 25.6445 80.3801 25.7489C80.1137 25.8511 79.8144 25.9023 79.482 25.9023ZM85.9475 23.0003V23.7034H83.2373V23.0003H85.9475ZM83.4163 20.8909V25.8H82.662V20.8909H83.4163ZM86.5228 20.8909V25.8H85.7686V20.8909H86.5228ZM91.1858 23.0003V23.7034H88.4756V23.0003H91.1858ZM88.6546 20.8909V25.8H87.9003V20.8909H88.6546ZM91.7611 20.8909V25.8H91.0068V20.8909H91.7611ZM93.7906 22.6679H95.1968C95.7721 22.6679 96.2121 22.8139 96.5168 23.1058C96.8215 23.3977 96.9738 23.7673 96.9738 24.2148C96.9738 24.5088 96.9056 24.7762 96.7693 25.017C96.6329 25.2556 96.4326 25.4463 96.1684 25.5891C95.9042 25.7297 95.5803 25.8 95.1968 25.8H93.1386V20.8909H93.8928V25.0969H95.1968C95.4951 25.0969 95.7401 25.018 95.9319 24.8604C96.1237 24.7027 96.2195 24.5003 96.2195 24.2531C96.2195 23.9932 96.1237 23.7812 95.9319 23.6171C95.7401 23.4531 95.4951 23.371 95.1968 23.371H93.7906V22.6679ZM97.7536 25.8V20.8909H98.5079V25.8H97.7536ZM101.947 25.9023C101.474 25.9023 101.066 25.7979 100.723 25.5891C100.382 25.3781 100.119 25.0841 99.9333 24.707C99.7501 24.3277 99.6585 23.8867 99.6585 23.3838C99.6585 22.881 99.7501 22.4378 99.9333 22.0543C100.119 21.6686 100.377 21.3682 100.707 21.153C101.039 20.9357 101.427 20.827 101.87 20.827C102.126 20.827 102.378 20.8696 102.628 20.9548C102.877 21.0401 103.104 21.1786 103.308 21.3703C103.513 21.5599 103.676 21.8114 103.797 22.1246C103.919 22.4378 103.979 22.8234 103.979 23.2815V23.6011H100.195V22.9492H103.212C103.212 22.6722 103.157 22.425 103.046 22.2077C102.938 21.9903 102.782 21.8188 102.58 21.6931C102.379 21.5674 102.143 21.5045 101.87 21.5045C101.57 21.5045 101.31 21.5791 101.09 21.7283C100.873 21.8753 100.706 22.067 100.589 22.3036C100.471 22.5401 100.413 22.7936 100.413 23.0642V23.4989C100.413 23.8696 100.477 24.1839 100.604 24.4417C100.734 24.6974 100.915 24.8923 101.145 25.0266C101.375 25.1587 101.642 25.2247 101.947 25.2247C102.145 25.2247 102.324 25.197 102.484 25.1416C102.646 25.0841 102.785 24.9989 102.902 24.8859C103.02 24.7709 103.11 24.6281 103.174 24.4577L103.903 24.6622C103.826 24.9094 103.697 25.1267 103.516 25.3142C103.335 25.4996 103.111 25.6445 102.845 25.7489C102.579 25.8511 102.279 25.9023 101.947 25.9023Z" fill="black"/>
<path d="M66.6903 38.8409V32.0909H67.419V32.8707H67.5085C67.5639 32.7855 67.6406 32.6768 67.7386 32.5447C67.8388 32.4105 67.9815 32.2912 68.1669 32.1868C68.3544 32.0803 68.608 32.027 68.9276 32.027C69.3409 32.027 69.7053 32.1303 70.0206 32.337C70.3359 32.5437 70.582 32.8366 70.7589 33.2159C70.9357 33.5952 71.0241 34.0426 71.0241 34.5582C71.0241 35.0781 70.9357 35.5288 70.7589 35.9102C70.582 36.2894 70.337 36.5835 70.0238 36.7923C69.7106 36.9989 69.3494 37.1023 68.9403 37.1023C68.625 37.1023 68.3725 37.0501 68.1829 36.9457C67.9933 36.8391 67.8473 36.7187 67.745 36.5845C67.6428 36.4482 67.5639 36.3352 67.5085 36.2457H67.4446V38.8409H66.6903ZM67.4318 34.5455C67.4318 34.9162 67.4862 35.2433 67.5948 35.5266C67.7035 35.8079 67.8622 36.0284 68.071 36.1882C68.2798 36.3459 68.5355 36.4247 68.8381 36.4247C69.1534 36.4247 69.4165 36.3416 69.6275 36.1754C69.8406 36.0071 70.0004 35.7812 70.1069 35.4979C70.2156 35.2124 70.2699 34.8949 70.2699 34.5455C70.2699 34.2003 70.2166 33.8892 70.1101 33.6122C70.0057 33.3331 69.8469 33.1126 69.6339 32.9506C69.4229 32.7866 69.1577 32.7045 68.8381 32.7045C68.5313 32.7045 68.2734 32.7823 68.0646 32.9379C67.8558 33.0913 67.6982 33.3065 67.5916 33.5835C67.4851 33.8583 67.4318 34.179 67.4318 34.5455ZM74.233 37.1023C73.7599 37.1023 73.3519 36.9979 73.0089 36.7891C72.668 36.5781 72.4048 36.2841 72.2195 35.907C72.0362 35.5277 71.9446 35.0866 71.9446 34.5838C71.9446 34.081 72.0362 33.6378 72.2195 33.2543C72.4048 32.8686 72.6626 32.5682 72.9929 32.353C73.3253 32.1357 73.7131 32.027 74.1562 32.027C74.4119 32.027 74.6644 32.0696 74.9137 32.1548C75.163 32.2401 75.3899 32.3786 75.5945 32.5703C75.799 32.7599 75.962 33.0114 76.0835 33.3246C76.2049 33.6378 76.2656 34.0234 76.2656 34.4815V34.8011H72.4815V34.1491H75.4986C75.4986 33.8722 75.4432 33.625 75.3324 33.4077C75.2237 33.1903 75.0682 33.0188 74.8658 32.8931C74.6655 32.7674 74.429 32.7045 74.1562 32.7045C73.8558 32.7045 73.5959 32.7791 73.3764 32.9283C73.1591 33.0753 72.9918 33.267 72.8746 33.5036C72.7575 33.7401 72.6989 33.9936 72.6989 34.2642V34.6989C72.6989 35.0696 72.7628 35.3839 72.8906 35.6417C73.0206 35.8974 73.2006 36.0923 73.4308 36.2266C73.6609 36.3587 73.9283 36.4247 74.233 36.4247C74.4311 36.4247 74.6101 36.397 74.7699 36.3416C74.9318 36.2841 75.0714 36.1989 75.1886 36.0859C75.3058 35.9709 75.3963 35.8281 75.4602 35.6577L76.1889 35.8622C76.1122 36.1094 75.9833 36.3267 75.8022 36.5142C75.6211 36.6996 75.3974 36.8445 75.131 36.9489C74.8647 37.0511 74.5653 37.1023 74.233 37.1023ZM77.413 32.0909H78.1673V36.2969H80.021V32.0909H80.7752V36.2969H82.6289V32.0909H83.3832V37H77.413V32.0909ZM86.8189 37.1023C86.3459 37.1023 85.9379 36.9979 85.5948 36.7891C85.2539 36.5781 84.9908 36.2841 84.8054 35.907C84.6222 35.5277 84.5305 35.0866 84.5305 34.5838C84.5305 34.081 84.6222 33.6378 84.8054 33.2543C84.9908 32.8686 85.2486 32.5682 85.5788 32.353C85.9112 32.1357 86.299 32.027 86.7422 32.027C86.9979 32.027 87.2504 32.0696 87.4996 32.1548C87.7489 32.2401 87.9759 32.3786 88.1804 32.5703C88.3849 32.7599 88.5479 33.0114 88.6694 33.3246C88.7908 33.6378 88.8516 34.0234 88.8516 34.4815V34.8011H85.0675V34.1491H88.0845C88.0845 33.8722 88.0291 33.625 87.9183 33.4077C87.8097 33.1903 87.6541 33.0188 87.4517 32.8931C87.2514 32.7674 87.0149 32.7045 86.7422 32.7045C86.4418 32.7045 86.1818 32.7791 85.9624 32.9283C85.745 33.0753 85.5778 33.267 85.4606 33.5036C85.3434 33.7401 85.2848 33.9936 85.2848 34.2642V34.6989C85.2848 35.0696 85.3487 35.3839 85.4766 35.6417C85.6065 35.8974 85.7866 36.0923 86.0167 36.2266C86.2468 36.3587 86.5142 36.4247 86.8189 36.4247C87.017 36.4247 87.196 36.397 87.3558 36.3416C87.5178 36.2841 87.6573 36.1989 87.7745 36.0859C87.8917 35.9709 87.9822 35.8281 88.0462 35.6577L88.7749 35.8622C88.6982 36.1094 88.5692 36.3267 88.3881 36.5142C88.207 36.6996 87.9833 36.8445 87.717 36.9489C87.4506 37.0511 87.1513 37.1023 86.8189 37.1023ZM93.2844 34.2003V34.9034H90.5742V34.2003H93.2844ZM90.7532 32.0909V37H89.9989V32.0909H90.7532ZM93.8597 32.0909V37H93.1055V32.0909H93.8597ZM95.9915 35.8878L98.3565 32.0909H99.2259V37H98.4716V33.2031L96.1193 37H95.2372V32.0909H95.9915V35.8878ZM103.56 37V32.7812H102.256C101.962 32.7812 101.731 32.8494 101.563 32.9858C101.395 33.1222 101.31 33.3097 101.31 33.5483C101.31 33.7827 101.386 33.967 101.537 34.1012C101.691 34.2354 101.901 34.3026 102.167 34.3026H103.752V35.0057H102.167C101.835 35.0057 101.548 34.9471 101.307 34.8299C101.066 34.7127 100.881 34.5455 100.751 34.3281C100.621 34.1087 100.556 33.8487 100.556 33.5483C100.556 33.2457 100.624 32.9858 100.761 32.7685C100.897 32.5511 101.092 32.3839 101.346 32.2667C101.601 32.1495 101.905 32.0909 102.256 32.0909H104.276V37H103.56ZM100.288 37L101.681 34.5582H102.499L101.106 37H100.288Z" fill="black"/>
<path d="M104.3 0.300003H11.3C5.40001 0.300003 0.700012 5 0.700012 10.9V110.6C0.700012 116.5 5.50001 121.3 11.4 121.3H104.4C110.3 121.3 115.1 116.5 115.1 110.6V10.9C114.9 5 110.2 0.300003 104.3 0.300003ZM111.3 110.6C111.3 114.5 108.2 117.6 104.3 117.6H11.3C7.40001 117.6 4.30001 114.5 4.30001 110.6V10.9C4.30001 7 7.40001 3.9 11.3 3.9H104.3C108.2 3.9 111.3 7 111.3 10.9V110.6Z" fill="black"/>
<path d="M92.3 47.4H76.3V69.2H54.6V83.7H39.3V47.4H32.8V83.7H23.4C20.2 83.7 17.6 81.1 17.6 77.9V47.4H11.1V77.9C11.1 84.7 16.6 90.3 23.5 90.3H39.5H54.8V112.1H61.3V75.8H76.6V112.1H83.1V90.3H92.5C99.3 90.3 104.9 84.8 104.9 77.9V59.8C104.7 53 99.1 47.4 92.3 47.4ZM98.1 77.9C98.1 81.1 95.5 83.7 92.3 83.7H82.9V54H92.3C95.5 54 98.1 56.6 98.1 59.8V77.9Z" fill="black"/>
</g>
<defs>
<clipPath id="clip0_10_2">
<rect width="115" height="121" fill="white"/>
</clipPath>
</defs>
</svg>
