<?xml version="1.0" encoding="utf-8"?>
<!-- Generator: Adobe Illustrator 23.0.6, SVG Export Plug-In . SVG Version: 6.00 Build 0)  -->
<svg version="1.1" id="Слой_1" xmlns="http://www.w3.org/2000/svg" xmlns:xlink="http://www.w3.org/1999/xlink" x="0px" y="0px"
	 viewBox="0 0 115 121" style="enable-background:new 0 0 115 121;" xml:space="preserve">
<style type="text/css">
	.st0{fill:#FFFFFF;}
	.st1{font-family:'Georgia-Bold';}
	.st2{font-size:9px;}
	.st3{fill:none;}
</style>
<text transform="matrix(1 0 0 1 53.5707 14.8302)"><tspan x="11.7" y="0" class="st0 st1 st2">цифровые</tspan><tspan x="-20.4" y="10.8" class="st0 st1 st2">производственные</tspan><tspan x="17" y="21.6" class="st0 st1 st2">решения</tspan></text>
<g>
	<path class="st3" d="M92.3,54h-9.4v29.8h9.4c3.2,0,5.8-2.6,5.8-5.8V59.8C98.1,56.6,95.5,54,92.3,54z"/>
	<path class="st3" d="M104.3,3.9h-93c-3.9,0-7,3.1-7,7v99.7c0,3.9,3.1,7,7,7h93c3.9,0,7-3.1,7-7V10.9C111.3,7.1,108.1,3.9,104.3,3.9
		z M104.7,77.9c0,6.8-5.5,12.4-12.4,12.4h-9.4v21.8h-6.5V75.8H61.1v36.3h-6.5V90.3H39.3v0h-16c-6.8,0-12.4-5.5-12.4-12.4V47.4h6.5
		v30.5c0,3.2,2.6,5.8,5.8,5.8h9.4V47.4h6.5v36.3h15.3V69.2h21.8V47.4h16c6.8,0,12.4,5.5,12.4,12.4V77.9z"/>
	<path class="st0" d="M104.3,0.3h-93C5.4,0.3,0.7,5,0.7,10.9v99.7c0,5.9,4.8,10.7,10.7,10.7h93c5.9,0,10.7-4.8,10.7-10.7V10.9
		C114.9,5,110.2,0.3,104.3,0.3z M111.3,110.6c0,3.9-3.1,7-7,7h-93c-3.9,0-7-3.1-7-7V10.9c0-3.9,3.1-7,7-7h93c3.9,0,7,3.1,7,7V110.6z
		"/>
	<path class="st0" d="M92.3,47.4h-16v21.8H54.6v14.5H39.3V47.4h-6.5v36.3h-9.4c-3.2,0-5.8-2.6-5.8-5.8V47.4h-6.5v30.5
		c0,6.8,5.5,12.4,12.4,12.4h16v0h15.3v21.8h6.5V75.8h15.3v36.3h6.5V90.3h9.4c6.8,0,12.4-5.5,12.4-12.4V59.8
		C104.7,53,99.1,47.4,92.3,47.4z M98.1,77.9c0,3.2-2.6,5.8-5.8,5.8h-9.4V54h9.4c3.2,0,5.8,2.6,5.8,5.8V77.9z"/>
</g>
</svg>
